{
	"asset":{
		"generator":"Khronos glTF Blender I/O v4.1.63",
		"version":"2.0"
	},
	"scene":0,
	"scenes":[
		{
			"name":"Scene",
			"nodes":[
				0
			]
		}
	],
	"nodes":[
		{
			"mesh":0,
			"name":"Axe",
			"translation":[
				0,
				0,
				-2.5
			]
		}
	],
	"meshes":[
		{
			"name":"Axe",
			"primitives":[
				{
					"attributes":{
						"_MATERIALSLOT":0,
						"POSITION":1,
						"NORMAL":2,
						"TEXCOORD_0":3,
						"COLOR_0":4
					},
					"indices":5
				}
			]
		}
	],
	"accessors":[
		{
			"bufferView":0,
			"componentType":5126,
			"count":162,
			"type":"VEC4"
		},
		{
			"bufferView":1,
			"componentType":5126,
			"count":162,
			"max":[
				0.029083237051963806,
				0.4812265634536743,
				0.05703127384185791
			],
			"min":[
				-0.02982282266020775,
				-0.2271120399236679,
				-0.18663229048252106
			],
			"type":"VEC3"
		},
		{
			"bufferView":2,
			"componentType":5126,
			"count":162,
			"type":"VEC3"
		},
		{
			"bufferView":3,
			"componentType":5126,
			"count":162,
			"type":"VEC2"
		},
		{
			"bufferView":4,
			"componentType":5126,
			"count":162,
			"type":"VEC3"
		},
		{
			"bufferView":5,
			"componentType":5123,
			"count":228,
			"type":"SCALAR"
		}
	],
	"bufferViews":[
		{
			"buffer":0,
			"byteLength":2592,
			"byteOffset":0,
			"target":34962
		},
		{
			"buffer":0,
			"byteLength":1944,
			"byteOffset":2592,
			"target":34962
		},
		{
			"buffer":0,
			"byteLength":1944,
			"byteOffset":4536,
			"target":34962
		},
		{
			"buffer":0,
			"byteLength":1296,
			"byteOffset":6480,
			"target":34962
		},
		{
			"buffer":0,
			"byteLength":1944,
			"byteOffset":7776,
			"target":34962
		},
		{
			"buffer":0,
			"byteLength":456,
			"byteOffset":9720,
			"target":34963
		}
	],
	"buffers":[
		{
			"byteLength":10176,
			"uri":"axe.bin"
		}
	]
}
