{
	"asset":{
		"generator":"Khronos glTF Blender I/O v3.6.28",
		"version":"2.0"
	},
	"scene":0,
	"scenes":[
		{
			"name":"Scene",
			"nodes":[
				0
			]
		}
	],
	"nodes":[
		{
			"mesh":0,
			"name":"BigBench",
			"translation":[
				-4.5,
				0,
				-3.5
			]
		}
	],
	"materials":[
		{
			"doubleSided":true,
			"name":"Material",
			"pbrMetallicRoughness":{
				"baseColorFactor":[
					0.800000011920929,
					0.800000011920929,
					0.800000011920929,
					1
				],
				"metallicFactor":0,
				"roughnessFactor":0.5
			}
		}
	],
	"meshes":[
		{
			"name":"Workbench.005",
			"primitives":[
				{
					"attributes":{
						"COLOR_0":0,
						"POSITION":1,
						"NORMAL":2,
						"TEXCOORD_0":3
					},
					"indices":4,
					"material":0
				}
			]
		}
	],
	"accessors":[
		{
			"bufferView":0,
			"componentType":5123,
			"count":2342,
			"normalized":true,
			"type":"VEC4"
		},
		{
			"bufferView":1,
			"componentType":5126,
			"count":2342,
			"max":[
				1.4999991655349731,
				2.038123607635498,
				3.5000011920928955
			],
			"min":[
				-1.5000007152557373,
				-2.9802322387695312e-08,
				-0.5000009536743164
			],
			"type":"VEC3"
		},
		{
			"bufferView":2,
			"componentType":5126,
			"count":2342,
			"type":"VEC3"
		},
		{
			"bufferView":3,
			"componentType":5126,
			"count":2342,
			"type":"VEC2"
		},
		{
			"bufferView":4,
			"componentType":5123,
			"count":3492,
			"type":"SCALAR"
		}
	],
	"bufferViews":[
		{
			"buffer":0,
			"byteLength":18736,
			"byteOffset":0,
			"target":34962
		},
		{
			"buffer":0,
			"byteLength":28104,
			"byteOffset":18736,
			"target":34962
		},
		{
			"buffer":0,
			"byteLength":28104,
			"byteOffset":46840,
			"target":34962
		},
		{
			"buffer":0,
			"byteLength":18736,
			"byteOffset":74944,
			"target":34962
		},
		{
			"buffer":0,
			"byteLength":6984,
			"byteOffset":93680,
			"target":34963
		}
	],
	"buffers":[
		{
			"byteLength":100664,
			"uri":"data:application/octet-stream;base64,"
		}
	]
}
