{
	"asset":{
		"generator":"Khronos glTF Blender I/O v3.6.28",
		"version":"2.0"
	},
	"scene":0,
	"scenes":[
		{
			"name":"Scene",
			"nodes":[
				0
			]
		}
	],
	"nodes":[
		{
			"mesh":0,
			"name":"Tile_wire",
			"translation":[
				2.5,
				0,
				1.5
			]
		}
	],
	"materials":[
		{
			"doubleSided":true,
			"name":"Material",
			"pbrMetallicRoughness":{
				"baseColorFactor":[
					0.800000011920929,
					0.800000011920929,
					0.800000011920929,
					1
				],
				"metallicFactor":0,
				"roughnessFactor":0.5
			}
		}
	],
	"meshes":[
		{
			"name":"Workbench.009",
			"primitives":[
				{
					"attributes":{
						"COLOR_0":0,
						"POSITION":1,
						"NORMAL":2,
						"TEXCOORD_0":3
					},
					"indices":4,
					"material":0
				}
			]
		}
	],
	"accessors":[
		{
			"bufferView":0,
			"componentType":5123,
			"count":168,
			"normalized":true,
			"type":"VEC4"
		},
		{
			"bufferView":1,
			"componentType":5126,
			"count":168,
			"max":[
				0.5000002384185791,
				1,
				0.49999988079071045
			],
			"min":[
				-0.5,
				-6.984919309616089e-08,
				-0.5000002384185791
			],
			"type":"VEC3"
		},
		{
			"bufferView":2,
			"componentType":5126,
			"count":168,
			"type":"VEC3"
		},
		{
			"bufferView":3,
			"componentType":5126,
			"count":168,
			"type":"VEC2"
		},
		{
			"bufferView":4,
			"componentType":5123,
			"count":432,
			"type":"SCALAR"
		}
	],
	"bufferViews":[
		{
			"buffer":0,
			"byteLength":1344,
			"byteOffset":0,
			"target":34962
		},
		{
			"buffer":0,
			"byteLength":2016,
			"byteOffset":1344,
			"target":34962
		},
		{
			"buffer":0,
			"byteLength":2016,
			"byteOffset":3360,
			"target":34962
		},
		{
			"buffer":0,
			"byteLength":1344,
			"byteOffset":5376,
			"target":34962
		},
		{
			"buffer":0,
			"byteLength":864,
			"byteOffset":6720,
			"target":34963
		}
	],
	"buffers":[
		{
			"byteLength":7584,
			"uri":"data:application/octet-stream;base64,"
		}
	]
}
