{
	"asset":{
		"generator":"Khronos glTF Blender I/O v4.1.63",
		"version":"2.0"
	},
	"scene":0,
	"scenes":[
		{
			"name":"Scene",
			"nodes":[
				0
			]
		}
	],
	"nodes":[
		{
			"mesh":0,
			"name":"Door_01",
			"translation":[
				7.5,
				0,
				-0.5
			]
		}
	],
	"meshes":[
		{
			"name":"Door_1",
			"primitives":[
				{
					"attributes":{
						"_SLOT":0,
						"POSITION":1,
						"NORMAL":2,
						"TEXCOORD_0":3,
						"COLOR_0":4
					},
					"indices":5
				}
			]
		}
	],
	"accessors":[
		{
			"bufferView":0,
			"componentType":5126,
			"count":72,
			"type":"VEC4"
		},
		{
			"bufferView":1,
			"componentType":5126,
			"count":72,
			"max":[
				0.4900001287460327,
				1.9800002574920654,
				0.149999737739563
			],
			"min":[
				-0.5000000596046448,
				0.02999996952712536,
				-0.15000009536743164
			],
			"type":"VEC3"
		},
		{
			"bufferView":2,
			"componentType":5126,
			"count":72,
			"type":"VEC3"
		},
		{
			"bufferView":3,
			"componentType":5126,
			"count":72,
			"type":"VEC2"
		},
		{
			"bufferView":4,
			"componentType":5126,
			"count":72,
			"type":"VEC3"
		},
		{
			"bufferView":5,
			"componentType":5123,
			"count":144,
			"type":"SCALAR"
		}
	],
	"bufferViews":[
		{
			"buffer":0,
			"byteLength":1152,
			"byteOffset":0,
			"target":34962
		},
		{
			"buffer":0,
			"byteLength":864,
			"byteOffset":1152,
			"target":34962
		},
		{
			"buffer":0,
			"byteLength":864,
			"byteOffset":2016,
			"target":34962
		},
		{
			"buffer":0,
			"byteLength":576,
			"byteOffset":2880,
			"target":34962
		},
		{
			"buffer":0,
			"byteLength":864,
			"byteOffset":3456,
			"target":34962
		},
		{
			"buffer":0,
			"byteLength":288,
			"byteOffset":4320,
			"target":34963
		}
	],
	"buffers":[
		{
			"byteLength":4608,
			"uri":"door.bin"
		}
	]
}
