{
	"asset":{
		"generator":"Khronos glTF Blender I/O v3.6.28",
		"version":"2.0"
	},
	"scene":0,
	"scenes":[
		{
			"name":"Scene",
			"nodes":[
				0
			]
		}
	],
	"nodes":[
		{
			"mesh":0,
			"name":"InterfaceOptional",
			"translation":[
				1.5,
				0,
				0.5
			]
		}
	],
	"materials":[
		{
			"doubleSided":true,
			"name":"Material",
			"pbrMetallicRoughness":{
				"baseColorFactor":[
					0.800000011920929,
					0.800000011920929,
					0.800000011920929,
					1
				],
				"metallicFactor":0,
				"roughnessFactor":0.5
			}
		}
	],
	"meshes":[
		{
			"name":"Workbench.006",
			"primitives":[
				{
					"attributes":{
						"COLOR_0":0,
						"POSITION":1,
						"NORMAL":2,
						"TEXCOORD_0":3
					},
					"indices":4,
					"material":0
				}
			]
		}
	],
	"accessors":[
		{
			"bufferView":0,
			"componentType":5123,
			"count":272,
			"normalized":true,
			"type":"VEC4"
		},
		{
			"bufferView":1,
			"componentType":5126,
			"count":272,
			"max":[
				0.23480230569839478,
				0.010000206530094147,
				-0.0851229876279831
			],
			"min":[
				-0.23480230569839478,
				2.0675361156463623e-07,
				-0.4308255612850189
			],
			"type":"VEC3"
		},
		{
			"bufferView":2,
			"componentType":5126,
			"count":272,
			"type":"VEC3"
		},
		{
			"bufferView":3,
			"componentType":5126,
			"count":272,
			"type":"VEC2"
		},
		{
			"bufferView":4,
			"componentType":5123,
			"count":480,
			"type":"SCALAR"
		}
	],
	"bufferViews":[
		{
			"buffer":0,
			"byteLength":2176,
			"byteOffset":0,
			"target":34962
		},
		{
			"buffer":0,
			"byteLength":3264,
			"byteOffset":2176,
			"target":34962
		},
		{
			"buffer":0,
			"byteLength":3264,
			"byteOffset":5440,
			"target":34962
		},
		{
			"buffer":0,
			"byteLength":2176,
			"byteOffset":8704,
			"target":34962
		},
		{
			"buffer":0,
			"byteLength":960,
			"byteOffset":10880,
			"target":34963
		}
	],
	"buffers":[
		{
			"byteLength":11840,
			"uri":"data:application/octet-stream;base64,"
		}
	]
}
