{
	"asset":{
		"generator":"Khronos glTF Blender I/O v4.1.63",
		"version":"2.0"
	},
	"scene":0,
	"scenes":[
		{
			"name":"Scene",
			"nodes":[
				0
			]
		}
	],
	"nodes":[
		{
			"mesh":0,
			"name":"Ladder",
			"translation":[
				2.5,
				0,
				-0.5
			]
		}
	],
	"meshes":[
		{
			"name":"Ladder",
			"primitives":[
				{
					"attributes":{
						"_SLOT":0,
						"POSITION":1,
						"NORMAL":2,
						"TEXCOORD_0":3,
						"COLOR_0":4
					},
					"indices":5
				}
			]
		}
	],
	"accessors":[
		{
			"bufferView":0,
			"componentType":5126,
			"count":156,
			"type":"VEC4"
		},
		{
			"bufferView":1,
			"componentType":5126,
			"count":156,
			"max":[
				0.4600001871585846,
				1.000000238418579,
				-0.36000025272369385
			],
			"min":[
				-0.46000003814697266,
				-2.9802322387695312e-08,
				-0.48000016808509827
			],
			"type":"VEC3"
		},
		{
			"bufferView":2,
			"componentType":5126,
			"count":156,
			"type":"VEC3"
		},
		{
			"bufferView":3,
			"componentType":5126,
			"count":156,
			"type":"VEC2"
		},
		{
			"bufferView":4,
			"componentType":5126,
			"count":156,
			"type":"VEC3"
		},
		{
			"bufferView":5,
			"componentType":5123,
			"count":252,
			"type":"SCALAR"
		}
	],
	"bufferViews":[
		{
			"buffer":0,
			"byteLength":2496,
			"byteOffset":0,
			"target":34962
		},
		{
			"buffer":0,
			"byteLength":1872,
			"byteOffset":2496,
			"target":34962
		},
		{
			"buffer":0,
			"byteLength":1872,
			"byteOffset":4368,
			"target":34962
		},
		{
			"buffer":0,
			"byteLength":1248,
			"byteOffset":6240,
			"target":34962
		},
		{
			"buffer":0,
			"byteLength":1872,
			"byteOffset":7488,
			"target":34962
		},
		{
			"buffer":0,
			"byteLength":504,
			"byteOffset":9360,
			"target":34963
		}
	],
	"buffers":[
		{
			"byteLength":9864,
			"uri":"ladder.bin"
		}
	]
}
