{
	"asset":{
		"generator":"Khronos glTF Blender I/O v3.6.28",
		"version":"2.0"
	},
	"scene":0,
	"scenes":[
		{
			"name":"Scene",
			"nodes":[
				0
			]
		}
	],
	"nodes":[
		{
			"mesh":0,
			"name":"Icosphere"
		}
	],
	"meshes":[
		{
			"name":"Icosphere",
			"primitives":[
				{
					"attributes":{
						"COLOR_0":0,
						"POSITION":1,
						"NORMAL":2,
						"TEXCOORD_0":3
					},
					"indices":4
				}
			]
		}
	],
	"accessors":[
		{
			"bufferView":0,
			"componentType":5123,
			"count":22,
			"normalized":true,
			"type":"VEC4"
		},
		{
			"bufferView":1,
			"componentType":5126,
			"count":22,
			"max":[
				0.44721201062202454,
				0.7749837636947632,
				0.42531996965408325
			],
			"min":[
				-0.44721201062202454,
				-0.22501623630523682,
				-0.4253200590610504
			],
			"type":"VEC3"
		},
		{
			"bufferView":2,
			"componentType":5126,
			"count":22,
			"type":"VEC3"
		},
		{
			"bufferView":3,
			"componentType":5126,
			"count":22,
			"type":"VEC2"
		},
		{
			"bufferView":4,
			"componentType":5123,
			"count":60,
			"type":"SCALAR"
		}
	],
	"bufferViews":[
		{
			"buffer":0,
			"byteLength":176,
			"byteOffset":0,
			"target":34962
		},
		{
			"buffer":0,
			"byteLength":264,
			"byteOffset":176,
			"target":34962
		},
		{
			"buffer":0,
			"byteLength":264,
			"byteOffset":440,
			"target":34962
		},
		{
			"buffer":0,
			"byteLength":176,
			"byteOffset":704,
			"target":34962
		},
		{
			"buffer":0,
			"byteLength":120,
			"byteOffset":880,
			"target":34963
		}
	],
	"buffers":[
		{
			"byteLength":1000,
			"uri":"data:application/octet-stream;base64,"
		}
	]
}
