{
	"asset":{
		"generator":"Khronos glTF Blender I/O v3.6.28",
		"version":"2.0"
	},
	"scene":0,
	"scenes":[
		{
			"name":"Scene",
			"nodes":[
				0
			]
		}
	],
	"nodes":[
		{
			"mesh":0,
			"name":"Workbench.001",
			"translation":[
				0.5,
				0,
				1.5
			]
		}
	],
	"materials":[
		{
			"doubleSided":true,
			"name":"Material",
			"pbrMetallicRoughness":{
				"baseColorFactor":[
					0.800000011920929,
					0.800000011920929,
					0.800000011920929,
					1
				],
				"metallicFactor":0,
				"roughnessFactor":0.5
			}
		}
	],
	"meshes":[
		{
			"name":"Workbench.007",
			"primitives":[
				{
					"attributes":{
						"COLOR_0":0,
						"POSITION":1,
						"NORMAL":2,
						"TEXCOORD_0":3
					},
					"indices":4,
					"material":0
				}
			]
		}
	],
	"accessors":[
		{
			"bufferView":0,
			"componentType":5123,
			"count":48,
			"normalized":true,
			"type":"VEC4"
		},
		{
			"bufferView":1,
			"componentType":5126,
			"count":48,
			"max":[
				0.5200002193450928,
				0.00999993085861206,
				0.5199998617172241
			],
			"min":[
				-0.5199999809265137,
				-6.984919309616089e-08,
				-0.5200002193450928
			],
			"type":"VEC3"
		},
		{
			"bufferView":2,
			"componentType":5126,
			"count":48,
			"type":"VEC3"
		},
		{
			"bufferView":3,
			"componentType":5126,
			"count":48,
			"type":"VEC2"
		},
		{
			"bufferView":4,
			"componentType":5123,
			"count":96,
			"type":"SCALAR"
		}
	],
	"bufferViews":[
		{
			"buffer":0,
			"byteLength":384,
			"byteOffset":0,
			"target":34962
		},
		{
			"buffer":0,
			"byteLength":576,
			"byteOffset":384,
			"target":34962
		},
		{
			"buffer":0,
			"byteLength":576,
			"byteOffset":960,
			"target":34962
		},
		{
			"buffer":0,
			"byteLength":384,
			"byteOffset":1536,
			"target":34962
		},
		{
			"buffer":0,
			"byteLength":192,
			"byteOffset":1920,
			"target":34963
		}
	],
	"buffers":[
		{
			"byteLength":2112,
			"uri":"data:application/octet-stream;base64,"
		}
	]
}
