{
	"asset":{
		"generator":"Khronos glTF Blender I/O v4.1.63",
		"version":"2.0"
	},
	"scene":0,
	"scenes":[
		{
			"name":"Scene",
			"nodes":[
				0
			]
		}
	],
	"nodes":[
		{
			"mesh":0,
			"name":"Torch_Standing",
			"translation":[
				4.5,
				0,
				-0.5
			]
		}
	],
	"meshes":[
		{
			"name":"Torch_Standing",
			"primitives":[
				{
					"attributes":{
						"_SLOT":0,
						"POSITION":1,
						"NORMAL":2,
						"TEXCOORD_0":3,
						"COLOR_0":4
					},
					"indices":5
				}
			]
		}
	],
	"accessors":[
		{
			"bufferView":0,
			"componentType":5126,
			"count":56,
			"type":"VEC4"
		},
		{
			"bufferView":1,
			"componentType":5126,
			"count":56,
			"max":[
				0.04781710356473923,
				1.500000238418579,
				0.04805731773376465
			],
			"min":[
				-0.04781710356473923,
				2.384185791015625e-07,
				-0.048057734966278076
			],
			"type":"VEC3"
		},
		{
			"bufferView":2,
			"componentType":5126,
			"count":56,
			"type":"VEC3"
		},
		{
			"bufferView":3,
			"componentType":5126,
			"count":56,
			"type":"VEC2"
		},
		{
			"bufferView":4,
			"componentType":5126,
			"count":56,
			"type":"VEC3"
		},
		{
			"bufferView":5,
			"componentType":5123,
			"count":84,
			"type":"SCALAR"
		}
	],
	"bufferViews":[
		{
			"buffer":0,
			"byteLength":896,
			"byteOffset":0,
			"target":34962
		},
		{
			"buffer":0,
			"byteLength":672,
			"byteOffset":896,
			"target":34962
		},
		{
			"buffer":0,
			"byteLength":672,
			"byteOffset":1568,
			"target":34962
		},
		{
			"buffer":0,
			"byteLength":448,
			"byteOffset":2240,
			"target":34962
		},
		{
			"buffer":0,
			"byteLength":672,
			"byteOffset":2688,
			"target":34962
		},
		{
			"buffer":0,
			"byteLength":168,
			"byteOffset":3360,
			"target":34963
		}
	],
	"buffers":[
		{
			"byteLength":3528,
			"uri":"torch_standing.bin"
		}
	]
}
