{
	"asset":{
		"generator":"Khronos glTF Blender I/O v3.6.28",
		"version":"2.0"
	},
	"scene":0,
	"scenes":[
		{
			"name":"Scene",
			"nodes":[
				0
			]
		}
	],
	"nodes":[
		{
			"mesh":0,
			"name":"Workbench",
			"translation":[
				-3.5,
				0,
				-0.5
			]
		}
	],
	"materials":[
		{
			"doubleSided":true,
			"name":"Material",
			"pbrMetallicRoughness":{
				"baseColorFactor":[
					0.800000011920929,
					0.800000011920929,
					0.800000011920929,
					1
				],
				"metallicFactor":0,
				"roughnessFactor":0.5
			}
		}
	],
	"meshes":[
		{
			"name":"Workbench",
			"primitives":[
				{
					"attributes":{
						"COLOR_0":0,
						"POSITION":1,
						"NORMAL":2,
						"TEXCOORD_0":3
					},
					"indices":4,
					"material":0
				}
			]
		}
	],
	"accessors":[
		{
			"bufferView":0,
			"componentType":5123,
			"count":200,
			"normalized":true,
			"type":"VEC4"
		},
		{
			"bufferView":1,
			"componentType":5126,
			"count":200,
			"max":[
				1.5,
				2.000000238418579,
				0.5
			],
			"min":[
				-0.5,
				-2.9802322387695312e-08,
				-0.5000002384185791
			],
			"type":"VEC3"
		},
		{
			"bufferView":2,
			"componentType":5126,
			"count":200,
			"type":"VEC3"
		},
		{
			"bufferView":3,
			"componentType":5126,
			"count":200,
			"type":"VEC2"
		},
		{
			"bufferView":4,
			"componentType":5123,
			"count":312,
			"type":"SCALAR"
		}
	],
	"bufferViews":[
		{
			"buffer":0,
			"byteLength":1600,
			"byteOffset":0,
			"target":34962
		},
		{
			"buffer":0,
			"byteLength":2400,
			"byteOffset":1600,
			"target":34962
		},
		{
			"buffer":0,
			"byteLength":2400,
			"byteOffset":4000,
			"target":34962
		},
		{
			"buffer":0,
			"byteLength":1600,
			"byteOffset":6400,
			"target":34962
		},
		{
			"buffer":0,
			"byteLength":624,
			"byteOffset":8000,
			"target":34963
		}
	],
	"buffers":[
		{
			"byteLength":8624,
			"uri":"data:application/octet-stream;base64,"
		}
	]
}
