{
	"asset":{
		"generator":"Khronos glTF Blender I/O v4.1.63",
		"version":"2.0"
	},
	"scene":0,
	"scenes":[
		{
			"name":"Scene",
			"nodes":[
				0
			]
		}
	],
	"nodes":[
		{
			"mesh":0,
			"name":"Workbench",
			"translation":[
				-3.5,
				0,
				-0.5
			]
		}
	],
	"meshes":[
		{
			"name":"Workbench",
			"primitives":[
				{
					"attributes":{
						"_SLOT":0,
						"POSITION":1,
						"NORMAL":2,
						"TEXCOORD_0":3,
						"COLOR_0":4
					},
					"indices":5
				}
			]
		}
	],
	"accessors":[
		{
			"bufferView":0,
			"componentType":5126,
			"count":218,
			"type":"VEC4"
		},
		{
			"bufferView":1,
			"componentType":5126,
			"count":218,
			"max":[
				1.5,
				1.5000001192092896,
				0.5
			],
			"min":[
				-0.5,
				-2.9802322387695312e-08,
				-0.5000002384185791
			],
			"type":"VEC3"
		},
		{
			"bufferView":2,
			"componentType":5126,
			"count":218,
			"type":"VEC3"
		},
		{
			"bufferView":3,
			"componentType":5126,
			"count":218,
			"type":"VEC2"
		},
		{
			"bufferView":4,
			"componentType":5126,
			"count":218,
			"type":"VEC3"
		},
		{
			"bufferView":5,
			"componentType":5123,
			"count":330,
			"type":"SCALAR"
		}
	],
	"bufferViews":[
		{
			"buffer":0,
			"byteLength":3488,
			"byteOffset":0,
			"target":34962
		},
		{
			"buffer":0,
			"byteLength":2616,
			"byteOffset":3488,
			"target":34962
		},
		{
			"buffer":0,
			"byteLength":2616,
			"byteOffset":6104,
			"target":34962
		},
		{
			"buffer":0,
			"byteLength":1744,
			"byteOffset":8720,
			"target":34962
		},
		{
			"buffer":0,
			"byteLength":2616,
			"byteOffset":10464,
			"target":34962
		},
		{
			"buffer":0,
			"byteLength":660,
			"byteOffset":13080,
			"target":34963
		}
	],
	"buffers":[
		{
			"byteLength":13740,
			"uri":"workbench.bin"
		}
	]
}
